PathFileType	4	(X/Y/Z)	S:\OneDrive - The University of Tokyo\ìåëÂéˆã∆\ÉoÉCÉÅÉJ\ë™íË\hirabayashi_2\Trimmed\Trimmed_Trimmed_ShSs3-Bar.trc
DataRate	CameraRate	NumFrames	NumMarkers	Units	OrigDataRate	OrigDataStartFrame	OrigNumFrames
200.00	200.00	      12	12	mm	200.00	645	      1718
Frame#	Time	BarR0			BarR50			BarR100			BarR130			BarR180			BarR230			BarL0			BarL50			BarL100			BarL130			BarL180			BarL230			
		X1	Y1	Z1	X2	Y2	Z2	X3	Y3	Z3	X4	Y4	Z4	X5	Y5	Z5	X6	Y6	Z6	X7	Y7	Z7	X8	Y8	Z8	X9	Y9	Z9	X10	Y10	Z10	X11	Y11	Z11	X12	Y12	Z12	

645	3.220	-574.34021	2753.86475	1663.99719	-597.82703	2304.50342	1653.01794	-628.61536	1850.87500	1646.48730	-652.67340	1348.70142	1646.38940	-681.45825	902.22986	1653.54395	-710.34320	454.92438	1663.71143	-1116.37231	2807.16626	1664.33264	-1146.23840	2355.70972	1658.90161	-1179.20776	1905.97729	1654.04468	-1207.26721	1404.81372	1653.80859	-1230.92139	953.38037	1659.14868	-1246.52734	506.87234	1667.35706	
646	3.225	-574.36932	2753.88354	1664.01038	-597.82318	2304.49414	1652.99695	-628.60229	1850.81677	1646.44995	-652.68475	1348.70605	1646.34302	-681.51770	902.21307	1653.50208	-710.37750	454.91116	1663.70337	-1116.37329	2807.13330	1664.33276	-1146.19458	2355.65674	1658.81763	-1179.17065	1905.93567	1653.89270	-1207.16150	1404.78345	1653.59985	-1230.99402	953.32440	1659.00159	-1246.48718	506.85464	1667.35303	
647	3.230	-574.34210	2753.86157	1663.99805	-597.82788	2304.47559	1652.96130	-628.55219	1850.80127	1646.39111	-652.64874	1348.68408	1646.27234	-681.47534	902.21387	1653.45178	-710.37982	454.92938	1663.68604	-1116.34412	2807.12646	1664.32971	-1146.15735	2355.60010	1658.73987	-1179.07605	1905.89636	1653.74683	-1207.07568	1404.79346	1653.39441	-1231.00061	953.27100	1658.88794	-1246.45154	506.85281	1667.33276	
648	3.235	-574.31891	2753.84473	1663.99451	-597.80243	2304.47021	1652.95129	-628.47284	1850.77808	1646.35242	-652.54767	1348.67395	1646.21289	-681.41919	902.19391	1653.40625	-710.39276	454.92596	1663.68494	-1116.37927	2807.11108	1664.33887	-1146.13940	2355.55835	1658.66931	-1179.02600	1905.85693	1653.60620	-1207.00415	1404.80383	1653.22046	-1230.97412	953.26031	1658.77271	-1246.42896	506.88220	1667.33789	
649	3.240	-574.31335	2753.85400	1663.99817	-597.75909	2304.47021	1652.94043	-628.38367	1850.79773	1646.33423	-652.45795	1348.68335	1646.19556	-681.33069	902.22321	1653.40613	-710.33929	454.92001	1663.68860	-1116.35876	2807.10547	1664.35767	-1146.10181	2355.55273	1658.63342	-1178.97717	1905.88940	1653.49939	-1206.93066	1404.82971	1653.09204	-1230.96277	953.28186	1658.70972	-1246.39417	506.88919	1667.32520	
650	3.245	-574.26111	2753.86743	1663.99231	-597.70441	2304.47827	1652.93298	-628.29010	1850.79456	1646.33972	-652.32056	1348.72131	1646.16968	-681.20190	902.24036	1653.38879	-710.30762	454.94165	1663.68762	-1116.33228	2807.13208	1664.34351	-1146.11340	2355.58740	1658.60193	-1178.93396	1905.91309	1653.42969	-1206.90295	1404.87256	1653.03699	-1230.93945	953.30212	1658.67151	-1246.39941	506.90198	1667.33472	
651	3.250	-574.22699	2753.88818	1663.98865	-597.63885	2304.50244	1652.94165	-628.23230	1850.82532	1646.34351	-652.18091	1348.75305	1646.20264	-682.25909	902.40491	1653.54199	-710.21332	454.99460	1663.98059	-1116.30750	2807.19629	1664.32434	-1146.09314	2355.63306	1658.61804	-1178.89136	1905.96021	1653.44812	-1206.93494	1404.90417	1653.01550	-1230.97192	953.35529	1658.67883	-1246.41174	506.92020	1667.34900	
652	3.255	-574.20032	2753.92212	1664.00562	-597.60901	2304.56787	1652.98730	-628.10419	1850.86841	1646.42993	-652.06934	1348.77588	1646.25317	-682.14746	902.48041	1653.57410	-710.18231	454.99316	1664.00293	-1116.32495	2807.21582	1664.34253	-1146.10547	2355.68506	1658.66516	-1178.88257	1905.97766	1653.49353	-1206.92664	1404.93811	1653.06006	-1230.97241	953.41058	1658.70593	-1246.44910	506.95612	1667.35730	
653	3.260	-574.20392	2753.95239	1663.98462	-597.54572	2304.55908	1653.02222	-628.05475	1850.90186	1646.52686	-651.98553	1348.81177	1646.33948	-682.01886	902.52277	1653.63831	-710.12158	455.03268	1664.00085	-1116.29675	2807.27124	1664.32104	-1146.09436	2355.72070	1658.69910	-1178.91125	1906.01892	1653.59705	-1206.95483	1404.97241	1653.15027	-1231.01123	953.41553	1658.75818	-1246.50183	506.96313	1667.36938	
654	3.265	-574.19171	2753.99561	1663.99268	-597.53168	2304.63525	1653.11072	-628.04205	1850.94092	1646.66333	-651.94073	1348.84473	1646.45618	-682.01599	902.57318	1653.71936	-710.09778	455.06213	1664.02271	-1116.27222	2807.28687	1664.32898	-1146.12622	2355.73657	1658.78101	-1178.93542	1906.04834	1653.73291	-1207.00562	1404.98450	1653.24243	-1231.01392	953.44751	1658.81055	-1246.53430	506.95758	1667.38354	
655	3.270	-574.20770	2754.04956	1664.00305	-597.57245	2304.66016	1653.21179	-628.09784	1850.99133	1646.82776	-651.96497	1348.86646	1646.62158	-682.01703	902.58612	1653.79126	-710.09637	455.06119	1664.02148	-1116.25391	2807.33325	1664.32056	-1146.11841	2355.79370	1658.83374	-1178.95508	1906.09509	1653.86536	-1207.04541	1405.00598	1653.38770	-1231.05188	953.46362	1658.87329	-1246.54944	506.95874	1667.38733	
656	3.275	-574.26709	2754.09009	1663.98523	-597.63495	2304.65942	1653.38342	-628.14240	1851.03516	1647.06287	-652.06232	1348.91089	1646.84583	-682.10486	902.60156	1653.92053	-710.14740	455.07629	1664.02734	-1116.28625	2807.31250	1664.31909	-1146.15295	2355.79541	1658.90210	-1178.96741	1906.07629	1653.96667	-1207.06079	1404.97156	1653.53162	-1231.08313	953.45245	1658.93530	-1246.60828	506.94031	1667.38818	
